<?xml version="1.0" encoding="utf-8"?>
<!-- Generator: Adobe Illustrator 16.0.0, SVG Export Plug-In . SVG Version: 6.00 Build 0)  -->
<!DOCTYPE svg PUBLIC "-//W3C//DTD SVG 1.1//EN" "http://www.w3.org/Graphics/SVG/1.1/DTD/svg11.dtd">
<svg version="1.1" id="Layer_1" xmlns="http://www.w3.org/2000/svg" xmlns:xlink="http://www.w3.org/1999/xlink" x="0px" y="0px"
	 width="24px" height="24px" viewBox="0 0 24 24" enable-background="new 0 0 24 24" xml:space="preserve">
<path d="M3.699,0.029C3.102,0.117,2.385,0.397,1.877,0.746c-0.333,0.22-0.762,0.632-1.008,0.957
	C0.594,2.066,0.257,2.766,0.124,3.247l-0.113,0.4v16.69l0.113,0.4c0.132,0.481,0.469,1.182,0.745,1.545
	c0.521,0.681,1.321,1.253,2.125,1.514C3.659,24.008,3.327,24,12.001,24c8.678,0,8.345,0.008,9.006-0.208
	c0.808-0.261,1.608-0.829,2.125-1.51c0.277-0.368,0.618-1.069,0.748-1.545l0.109-0.4V3.647l-0.113-0.4
	c-0.131-0.479-0.467-1.181-0.744-1.545c-0.248-0.325-0.676-0.737-1.007-0.957c-0.356-0.244-0.937-0.508-1.385-0.632l-0.394-0.108
	l-8.205-0.004C7.629-0.004,3.827,0.009,3.699,0.029L3.699,0.029z M14.882,4.444c1.264,0.208,2.128,0.624,2.693,1.296
	c0.239,0.285,0.519,0.85,0.637,1.27c0.072,0.276,0.083,0.432,0.087,1.121c0.004,0.725-0.004,0.832-0.087,1.117
	c-0.244,0.849-0.777,1.5-1.637,2.006l-0.296,0.171l0.211,0.068c0.323,0.108,0.865,0.389,1.141,0.597
	c0.689,0.521,1.168,1.329,1.361,2.293c0.092,0.48,0.092,1.509-0.004,1.95c-0.379,1.733-1.721,2.937-3.739,3.341
	c-0.772,0.157-0.972,0.165-5.12,0.165H6.076V4.344l4.195,0.016C14.026,4.372,14.505,4.38,14.882,4.444L14.882,4.444z M9.518,8.814
	v1.826l1.934-0.016c1.814-0.02,1.951-0.024,2.242-0.104c0.913-0.248,1.309-0.772,1.309-1.733c0-0.736-0.26-1.213-0.825-1.493
	c-0.5-0.249-1.041-0.3-3.166-0.304H9.518V8.814z M9.518,15.074v2.127l2.113-0.017c2.375-0.017,2.454-0.025,3.039-0.308
	c0.672-0.329,0.972-0.866,0.972-1.742c0-1.128-0.448-1.753-1.481-2.064c-0.291-0.092-0.347-0.092-2.468-0.108L9.518,12.95v2.126
	V15.074z"/>
</svg>
