<?xml version="1.0" encoding="utf-8"?>
<!-- Generator: Adobe Illustrator 16.0.0, SVG Export Plug-In . SVG Version: 6.00 Build 0)  -->
<!DOCTYPE svg PUBLIC "-//W3C//DTD SVG 1.1//EN" "http://www.w3.org/Graphics/SVG/1.1/DTD/svg11.dtd">
<svg version="1.1" id="Layer_1" xmlns="http://www.w3.org/2000/svg" xmlns:xlink="http://www.w3.org/1999/xlink" x="0px" y="0px"
	 width="250px" height="219.777px" viewBox="0 0 250 219.777" enable-background="new 0 0 250 219.777" xml:space="preserve">
<g>
	<path id="outline" fill="#000000" d="M245.222,107.348c-12.858-12.355-77.156-20.068-97.445-22.313
		c0.982-2.321,1.82-4.721,2.511-7.193c2.766-1.211,5.751-2.338,8.838-3.279c0.377,1.109,2.148,5.361,3.158,7.379
		c40.797,1.125,42.892-30.318,44.55-38.932c1.623-8.422,1.54-16.561,15.534-31.439c-20.848-6.075-50.829,9.416-60.871,32.474
		c-3.773-1.414-7.556-2.458-11.296-3.104C147.519,30.126,133.56,0,96.929,0C50.549,0,0,38.262,0,103.032
		c0,54.445,37.172,102.159,58.174,102.159c9.172,0,17.062-6.868,18.914-13.025c1.553,4.222,6.317,17.345,7.882,20.686
		c2.313,4.94,13.009,9.215,17.69,4.089c6.019,3.344,17.062,5.357,23.081-3.56c11.591,2.452,21.839-4.46,22.062-12.708
		c5.688-0.304,8.479-8.289,7.235-14.649c-0.915-4.683-10.696-21.484-14.511-27.283c7.552,6.143,26.681,7.881,29.004,0.003
		c12.177,9.558,31.151,4.542,32.655-3.231c14.796,3.845,31.765-4.599,28.979-14.824
		C254.933,139.044,251.891,113.756,245.222,107.348z"/>
	<g id="leaf">
		<path fill="#000000" d="M179.044,53.416c5.119-10.157,11.552-21.247,19.677-28.108c-8.943,3.604-17.771,14.378-22.992,25.894
			c-2.661-1.691-5.362-3.2-8.087-4.519c7.282-15.544,24.204-28.525,42.852-29.54c-12.49,11.328-8.057,34.873-18.326,47.337
			C189.228,61.527,182.48,55.831,179.044,53.416z M170.97,69.955c0.006-0.389,0.15-3.387,0.424-4.755
			c-0.717-0.168-5.168-1.039-7.488-0.985c-0.169,2.915,1.225,7.874,2.602,10.859c9.488-0.199,16.343-3.041,20.376-5.653
			c-3.435-1.601-9.294-3.024-13.75-3.875C172.636,66.574,171.412,69.195,170.97,69.955z"/>
	</g>
	<path id="wingtip" fill="#ffffff" d="M135.712,150.31c0.002,0.014,0.009,0.031,0.01,0.045c-1.202-2.587-2.479-5.731-4.006-9.84
		c5.939,8.645,24.554,4.186,23.578-3.561c9.11,6.855,27.864-1.143,23.601-10.754c9.126,4.252,19.543-4.305,17.207-8.033
		c15.56,3.001,30.471,5.992,35.151,7.189c-3.109,5.07-10.191,8.651-20.866,6.163c5.769,7.857-5.431,17.284-21.03,12.093
		c3.434,7.714-10.455,14.659-26.24,6.618C163.316,157.948,143.533,158.837,135.712,150.31z M166.578,111.303
		c18.059,1.387,47.922,4.08,66.411,6.667c-1.168-6.017-4.358-7.736-14.396-10.432C207.8,108.689,180.413,111.379,166.578,111.303z"
		/>
	<path id="body" fill="#ffffff" d="M155.294,136.954c9.11,6.855,27.864-1.143,23.601-10.754c9.126,4.252,19.543-4.305,17.207-8.033
		c-18.396-3.547-37.699-7.106-42.077-7.729c2.656,0.141,7.059,0.442,12.554,0.865c13.836,0.076,41.222-2.614,52.016-3.765
		c-17.478-4.432-53.162-10.899-77.806-12.492c-1.143,1.669-3.241,4.5-6.898,7.508c-10.782,22.813-30.317,37.977-51.932,37.977
		c-6.299,0-13.347-1.062-21.246-3.588c-4.926,5.278-25.93,9.277-42.972,0.912c13.519,31.653,44.868,52.783,79.569,52.783
		c29.225,0,42.184-29.845,39.348-37.74c-0.688-1.917-3.414-8.274-4.941-12.383C137.655,149.159,156.27,144.7,155.294,136.954z"/>
	<path id="beak" fill="#ffffff" d="M137.582,76.892c2.581-1.404,11.498-6.809,19.995-8.84c-0.134-0.941-0.235-1.89-0.298-2.844
		c-5.575,1.335-16.085,5.839-22.107-0.368c12.706,3.834,19.051-3.417,28.39-3.417c5.565,0,13.507,1.554,19.767,4.012
		c-5.035-4.651-21.545-18.688-41.987-18.737C136.777,52.231,131.844,64.217,137.582,76.892z"/>
	<path id="head" fill="#ffffff" d="M60.711,136.942c7.899,2.525,14.947,3.588,21.246,3.588c21.615,0,41.15-15.164,51.932-37.977
		c-7.974,6.657-21.834,12.353-43.479,12.353c19.279-4.372,35.876-13.979,44.319-28.022c-5.935-9.446-12.372-30.343,3.929-46.863
		c-2.508-8.056-14.712-29.322-41.73-29.322c-47.152,0-86.229,39.456-86.229,92.332c0,12.517,2.527,24.257,7.04,34.822
		C34.782,146.22,55.785,142.221,60.711,136.942z"/>
	<path id="eye_rim" fill="#000000" d="M74.858,56.433c0,12.027,9.75,21.778,21.778,21.778s21.779-9.751,21.779-21.778
		c0-12.028-9.751-21.779-21.779-21.779S74.858,44.405,74.858,56.433z"/>
	<path id="eye" fill="#000000" d="M83.597,56.433c0,7.2,5.838,13.038,13.039,13.038c7.202,0,13.039-5.838,13.039-13.038
		c0-7.202-5.837-13.04-13.039-13.04C89.436,43.394,83.597,49.231,83.597,56.433z"/>
	<ellipse id="pupil_highlight" fill="#FFFFFF" cx="96.636" cy="50.647" rx="7.598" ry="4.724"/>
</g>
</svg>
