<svg xmlns="http://www.w3.org/2000/svg" width="250" height="219.777" viewBox="0 0 250 219.777"><path d="M245.222 107.348c-12.858-12.355-77.156-20.068-97.445-22.313a59.683 59.683 0 0 0 2.511-7.193 81.244 81.244 0 0 1 8.838-3.279c.377 1.109 2.148 5.361 3.158 7.379 40.797 1.125 42.892-30.318 44.55-38.932 1.623-8.422 1.54-16.561 15.534-31.439-20.848-6.075-50.829 9.416-60.871 32.474-3.773-1.414-7.556-2.458-11.296-3.104C147.519 30.126 133.56 0 96.929 0 50.549 0 0 38.262 0 103.032c0 54.445 37.172 102.159 58.174 102.159 9.172 0 17.062-6.868 18.914-13.025 1.553 4.222 6.317 17.345 7.882 20.686 2.313 4.94 13.009 9.215 17.69 4.089 6.019 3.344 17.062 5.357 23.081-3.56 11.591 2.452 21.839-4.46 22.062-12.708 5.688-.304 8.479-8.289 7.235-14.649-.915-4.683-10.696-21.484-14.511-27.283 7.552 6.143 26.681 7.881 29.004.003 12.177 9.558 31.151 4.542 32.655-3.231 14.796 3.845 31.765-4.599 28.979-14.824 23.768-1.645 20.726-26.933 14.057-33.341z"/><path d="M179.044 53.416c5.119-10.157 11.552-21.247 19.677-28.108-8.943 3.604-17.771 14.378-22.992 25.894a80.425 80.425 0 0 0-8.087-4.519c7.282-15.544 24.204-28.525 42.852-29.54-12.49 11.328-8.057 34.873-18.326 47.337-2.94-2.953-9.688-8.649-13.124-11.064zm-8.074 16.539c.006-.389.15-3.387.424-4.755-.717-.168-5.168-1.039-7.488-.985-.169 2.915 1.225 7.874 2.602 10.859 9.488-.199 16.343-3.041 20.376-5.653-3.435-1.601-9.294-3.024-13.75-3.875-.498 1.028-1.722 3.649-2.164 4.409z"/><path fill="#fff" d="M135.712 150.31c.002.014.009.031.01.045-1.202-2.587-2.479-5.731-4.006-9.84 5.939 8.645 24.554 4.186 23.578-3.561 9.11 6.855 27.864-1.143 23.601-10.754 9.126 4.252 19.543-4.305 17.207-8.033 15.56 3.001 30.471 5.992 35.151 7.189-3.109 5.07-10.191 8.651-20.866 6.163 5.769 7.857-5.431 17.284-21.03 12.093 3.434 7.714-10.455 14.659-26.24 6.618.199 7.718-19.584 8.607-27.405.08zm30.866-39.007c18.059 1.387 47.922 4.08 66.411 6.667-1.168-6.017-4.358-7.736-14.396-10.432-10.793 1.151-38.18 3.841-52.015 3.765z"/><path fill="#fff" d="M155.294 136.954c9.11 6.855 27.864-1.143 23.601-10.754 9.126 4.252 19.543-4.305 17.207-8.033-18.396-3.547-37.699-7.106-42.077-7.729 2.656.141 7.059.442 12.554.865 13.836.076 41.222-2.614 52.016-3.765-17.478-4.432-53.162-10.899-77.806-12.492-1.143 1.669-3.241 4.5-6.898 7.508-10.782 22.813-30.317 37.977-51.932 37.977-6.299 0-13.347-1.062-21.246-3.588-4.926 5.278-25.93 9.277-42.972.912 13.519 31.653 44.868 52.783 79.569 52.783 29.225 0 42.184-29.845 39.348-37.74-.688-1.917-3.414-8.274-4.941-12.383 5.938 8.644 24.553 4.185 23.577-3.561zM137.582 76.892c2.581-1.404 11.498-6.809 19.995-8.84a37.887 37.887 0 0 1-.298-2.844c-5.575 1.335-16.085 5.839-22.107-.368 12.706 3.834 19.051-3.417 28.39-3.417 5.565 0 13.507 1.554 19.767 4.012-5.035-4.651-21.545-18.688-41.987-18.737-4.565 5.533-9.498 17.519-3.76 30.194z"/><path fill="#fff" d="M60.711 136.942c7.899 2.525 14.947 3.588 21.246 3.588 21.615 0 41.15-15.164 51.932-37.977-7.974 6.657-21.834 12.353-43.479 12.353 19.279-4.372 35.876-13.979 44.319-28.022-5.935-9.446-12.372-30.343 3.929-46.863-2.508-8.056-14.712-29.322-41.73-29.322-47.152 0-86.229 39.456-86.229 92.332 0 12.517 2.527 24.257 7.04 34.822 17.043 8.367 38.046 4.368 42.972-.911z"/><path d="M74.858 56.433c0 12.027 9.75 21.778 21.778 21.778s21.779-9.751 21.779-21.778c0-12.028-9.751-21.779-21.779-21.779s-21.778 9.751-21.778 21.779z"/><path d="M83.597 56.433c0 7.2 5.838 13.038 13.039 13.038 7.202 0 13.039-5.838 13.039-13.038 0-7.202-5.837-13.04-13.039-13.04-7.2.001-13.039 5.838-13.039 13.04z"/><ellipse fill="#FFF" cx="96.636" cy="50.647" rx="7.598" ry="4.724"/></svg>