<svg xmlns="http://www.w3.org/2000/svg" width="250" height="249.995" viewBox="0 0 250 249.995"><path d="M245.286 113.863L136.131 4.715c-6.281-6.287-16.478-6.287-22.768 0L90.699 27.381l28.75 28.754c6.685-2.257 14.346-.744 19.671 4.583 5.353 5.36 6.855 13.086 4.543 19.793l27.711 27.71c6.703-2.31 14.439-.818 19.793 4.545 7.483 7.482 7.483 19.603 0 27.091-7.485 7.487-19.61 7.487-27.099 0-5.627-5.632-7.021-13.899-4.17-20.834l-25.843-25.845-.002 68.006a19.334 19.334 0 0 1 5.066 3.621c7.483 7.483 7.483 19.604 0 27.101-7.483 7.479-19.613 7.479-27.09 0-7.483-7.496-7.483-19.617 0-27.101a19.251 19.251 0 0 1 6.272-4.179V91.99a18.937 18.937 0 0 1-6.272-4.18c-5.668-5.664-7.033-13.983-4.127-20.943l-28.34-28.348-74.844 74.84c-6.29 6.292-6.29 16.486 0 22.774l109.154 109.146c6.286 6.288 16.478 6.288 22.77 0l108.646-108.641c6.283-6.292 6.283-16.487-.002-22.775"/></svg>