<?xml version="1.0" encoding="utf-8"?>
<!-- Generator: Adobe Illustrator 16.0.0, SVG Export Plug-In . SVG Version: 6.00 Build 0)  -->
<!DOCTYPE svg PUBLIC "-//W3C//DTD SVG 1.1//EN" "http://www.w3.org/Graphics/SVG/1.1/DTD/svg11.dtd">
<svg version="1.1" id="Layer_1" xmlns="http://www.w3.org/2000/svg" xmlns:xlink="http://www.w3.org/1999/xlink" x="0px" y="0px"
	 width="250px" height="249.995px" viewBox="0 0 250 249.995" enable-background="new 0 0 250 249.995" xml:space="preserve" xmlns:inkscape="http://www.inkscape.org/namespaces/inkscape">
<path id="path28" inkscape:connector-curvature="0" fill="#000000" d="M245.286,113.863L136.131,4.715
	c-6.281-6.287-16.478-6.287-22.768,0L90.699,27.381l28.75,28.754c6.685-2.257,14.346-0.744,19.671,4.583
	c5.353,5.36,6.855,13.086,4.543,19.793l27.711,27.71c6.703-2.31,14.439-0.818,19.793,4.545c7.483,7.482,7.483,19.603,0,27.091
	c-7.485,7.487-19.61,7.487-27.099,0c-5.627-5.632-7.021-13.899-4.17-20.834l-25.843-25.845l-0.002,68.006
	c1.824,0.904,3.547,2.108,5.066,3.621c7.483,7.483,7.483,19.604,0,27.101c-7.483,7.479-19.613,7.479-27.09,0
	c-7.483-7.496-7.483-19.617,0-27.101c1.85-1.843,3.988-3.24,6.272-4.179V91.99c-2.284-0.934-4.421-2.321-6.272-4.18
	c-5.668-5.664-7.033-13.983-4.127-20.943L79.562,38.519l-74.844,74.84c-6.29,6.292-6.29,16.486,0,22.774l109.154,109.146
	c6.286,6.288,16.478,6.288,22.77,0l108.646-108.641C251.571,130.346,251.571,120.151,245.286,113.863"/>
</svg>
