<?xml version="1.0" encoding="utf-8"?>
<!-- Generator: Adobe Illustrator 16.0.0, SVG Export Plug-In . SVG Version: 6.00 Build 0)  -->
<!DOCTYPE svg PUBLIC "-//W3C//DTD SVG 1.1//EN" "http://www.w3.org/Graphics/SVG/1.1/DTD/svg11.dtd">
<svg version="1.1" id="Layer_1" xmlns="http://www.w3.org/2000/svg" xmlns:xlink="http://www.w3.org/1999/xlink" x="0px" y="0px"
	 width="243.195px" height="250px" viewBox="0 0 243.195 250" enable-background="new 0 0 243.195 250" xml:space="preserve">
<g>
	<path fill="#000000" d="M183.408,136.533c1.119,1.119,1.221,2.95-0.103,3.867c-3.256,2.137-7.429,1.833-11.298,1.425
		c-6.512-0.713-14.247-1.017-17.605-7.125c-0.103,0-0.103-0.103-0.204-0.204c-4.275-2.34,2.951-3.969,4.987-4.275
		c4.579-0.61,9.465,0.612,13.943,1.63C176.894,132.562,180.456,133.579,183.408,136.533L183.408,136.533L183.408,136.533z
		 M242.844,233.625c-3.053,2.138-1.729,5.802-3.867,8.346c-2.138,2.441-7.327,2.441-10.075,2.441
		c-11.704,0.103-23.103-0.812-34.604,0.103c-2.95,0.204-5.599,0.61-8.346,1.323c-0.814,0.204-2.137,0.712-3.054,0.204
		c-2.342-1.222-4.479-5.088-7.531-3.867c-2.545,1.119-4.479,4.783-7.532,2.544c-5.597-4.173-10.277-0.406-16.182,0.712
		c-6.106,1.224-11.908-2.137-17.911-0.508c-4.479,1.323-8.753,2.646-13.333,1.119c-4.58-1.628-5.8-5.19-1.832-8.548
		c6.31-5.191,14.146-6.005,21.983-5.395c11.908,1.018,23.714,0.101,35.621-0.51c0.408,0,0.612,0.204,0.612,0.51
		c5.087,2.036,8.344-2.037,11.296-5.598c0.408-0.51,1.121-0.204,1.325,0.101c4.272,6.311,9.464-0.812,14.858-0.204
		c1.425,0.102,2.748,0.51,3.664,1.833c0.406,0.61,0.508,1.323,0.508,2.035c0.204,3.257,4.375,2.544,4.275-0.712
		c0-0.509,0.61-1.018,1.119-0.814c4.274,1.73,9.771,3.97,13.23-0.509c2.952-3.765,3.358-9.16,3.664-13.739
		c0.611-12.314-0.204-24.935-1.119-37.147c-0.713-11.908-2.036-24.019-0.611-35.926c1.425-11.807,1.322-23.307,1.12-35.214
		c-0.102-6.209-0.408-12.417,0-18.625c0.202-5.7,1.222-11.806,0.61-17.505c-0.61-5.088-3.664-9.465-4.274-14.452
		c-0.61-4.58,0-9.363,1.119-13.841c0.612-2.749,2.037-6.106,1.935-8.956c-0.101-2.443-0.204-4.988-0.101-7.43
		c0-1.222-0.205-3.155,0.712-4.172c1.424-1.73,2.137-4.275-1.222-4.58c-8.04-1.017-16.285-6.107-23.918-1.12
		c0.103,1.73,0.205,3.664-0.204,5.394l1.121,1.425c1.933,0.814,3.866,1.119,6.004,1.222c2.442,0,5.088-0.611,7.532-0.408
		c2.035,0.203,3.767,2.036,3.054,4.376c-0.51,1.73-2.036,3.155-2.951,4.58c-1.63,2.545-1.324,6.209-1.324,9.161
		c-0.101,7.43,0,14.86,0.204,22.085c0.203,6.107,0.812,12.315,1.222,18.422c0.101,0.102,0.508,0.203,0.508,0.509
		c0.204,6.92,2.545,13.739,2.646,20.661c0.102,0.102-1.832,8.549-1.832,8.549c-0.101,8.956-0.813,25.545-0.813,25.545
		c-0.102,15.266-2.749,30.432-0.102,45.597c1.119,6.105-1.221,12.01-1.425,18.116c-0.203,6.716,0.611,13.333-0.407,20.049
		c0.102,0.407,0,0.813-0.509,1.018c-13.942,2.646-28.089,3.155-42.337,2.341c-3.562-0.204-7.736-0.508-11.195,0.814
		c-1.324,0.611-3.155,1.424-4.783,1.323c-2.035-0.204-3.055-1.833-4.987-2.138c-2.443-0.508-4.783-1.019-7.125-1.221
		c-6.311-0.814-12.314-1.221-18.219,1.323c-3.256,1.425-6.716,0.814-9.973-0.509c-3.867-1.629-6.819-3.562-11.094-1.425
		c-1.73,0.812-3.257,1.729-5.191,2.138c-1.628,0.408-3.053,0-4.478-0.612c-3.256-1.221-5.801-1.627-9.262-1.017
		c0.408,0.508,0.102,1.425-0.611,1.425c-20.661-1.121-41.423,1.324-62.083,1.627c-1.018,0.204-1.73,1.325-2.341,1.325h-0.611
		c-0.509,0-0.611-1.729-0.509-2.036c-2.748-3.054-2.035-13.129-1.933-16.08c0.814-19.235-1.628-38.574-2.137-57.707
		c-0.204-9.567-0.204-19.235,1.323-28.7c1.833-10.687,1.833-21.068,1.628-31.754c-0.509-21.271,1.628-42.439,1.017-63.71
		c0-0.408,0.408-0.509,0.611-0.408l0.203-0.102c5.7-0.509,11.908-2.036,17.505-0.509c0.102,0,0.203,0.102,0.203,0.204l0.814,0.102
		h6.311c0.203,0,0.509,0.102,0.509,0.203c11.195,0.102,22.391-0.814,33.585-1.323c3.867-0.102,7.938,0,11.806-1.222
		c1.935-0.611,4.275-1.628,6.31-1.425c5.089,0.406,10.28,1.934,15.266,3.053c3.562,0.712,6.004-5.394,9.16-3.257
		c4.784,3.054,10.279,1.934,15.775,2.036c2.95,0.102,5.699-0.51,8.649-0.51c1.63,0,2.952,0.408,4.377,0.713
		c1.426-0.203,2.646-0.102,4.274,0.509l26.055-0.814c5.19,0.102,10.89,0.51,15.877-1.425c1.322-0.509,2.035-1.222,2.442-2.036
		c-0.203-0.407-0.407-0.814-0.611-1.324c-0.407-0.712-0.813-1.628-1.324-2.137c-5.599-1.832-12.009-1.323-17.911-1.628
		c-8.039-0.408-15.877,0.712-23.916,1.323c-7.431,0.611-15.166,1.12-22.596,0.509c-4.376-0.407-12.62-2.341-16.385,0.712
		c-0.408,0.203-0.712,0.203-1.12,0c-7.125-5.801-16.488,2.952-24.63,0.509c-4.885-1.425-9.464-2.442-14.655-1.831
		c-4.987,0.509-9.872,1.221-14.961,1.221c-11.094-0.102-22.085,0.611-33.179,0.204c-2.442-0.102-4.783-0.102-7.022-0.408
		c-1.934-0.203-4.478-1.222-6.412-0.407c-3.053,1.12-3.664,2.137-3.359,3.053c0.815,0.611-2.035,4.478-2.035,6.412l-0.204,5.088
		c-0.102,7.531-0.611,14.452-2.341,21.78c-0.814,3.868-2.748,9.363-1.323,13.23c0.814,2.544,2.749,4.275,3.868,6.514
		c1.934,4.173,2.035,9.261,1.831,13.739l-1.222,43.762c-0.509,14.554-1.425,29.21-0.814,43.865
		c0.509,13.537,2.646,27.377,0.814,40.812c-0.61,4.479-6.004,12.416-0.814,15.572c2.952,1.729,6.412,2.137,9.771,2.441
		c8.244,0.511,16.487-0.406,24.833-1.323c3.053-0.408,6.106-1.017,9.16-1.017c2.34-0.102,4.478,0.204,6.717,1.017
		c1.934,0.713,4.885,2.036,7.124,2.036c0.102,0.102,3.664-0.101,3.867-1.119c3.054-1.325,5.7-2.342,9.567-1.629
		c3.766,0.712,7.125,1.221,11.094,0.508c2.036-0.406,5.088-0.61,7.125-0.1l0.814,0.61c0.814-0.406-0.509,1.017-1.323,1.323
		c-4.58,1.833-3.155,7.734-3.664,11.703c0,0.408-0.509,0.509-0.712,0.509c-1.832,0-4.376,0-5.394-1.934
		c-2.138-3.969-7.328-6.717-7.328,1.629c0,0.509-0.407,0.713-0.712,0.713c-0.407,0-0.712-0.204-0.712-0.713
		c0-0.508-5.394-3.358-6.005-3.664c-2.646-1.425-5.7-3.154-8.854-2.035c-1.934,0.61-3.562,1.73-5.394,2.545
		c-3.256,3.969-6.717,8.244-11.5,5.698c-1.018-0.508-4.988-3.969-5.802-3.256c-1.119,1.221-2.34,2.441-3.867,3.054
		c-4.376,1.729-8.957,1.425-13.638,1.323c-0.204,0-0.712-0.204-0.712-0.61c-0.204-1.833-1.222-5.496-3.766-3.259
		c-0.611,0.509-1.119,1.019-1.729,1.629c-0.712,0.611-1.628,1.426-2.544,1.832c-3.053,1.223-12.416-0.406-13.638-2.544
		c-1.017-1.629-1.323-3.258-1.729-5.09c-0.712-4.477-0.203-9.362-0.408-13.941c-0.407-11.502-1.222-22.799-2.138-34.299
		c-0.509-5.8-1.017-11.806-0.509-17.708c0.203-3.767,0.407-8.958,2.341-12.417c1.628-2.747,0.509-4.987-1.628-7.022
		c-0.509-0.612-0.712-1.73-0.712-2.443c-0.407-4.275,0.407-8.752,0.61-13.027c0.204-3.153,0.712-6.31,0.712-9.464
		c0-2.443-0.509-4.783-0.712-7.125c-0.102-1.222-0.203-2.442,0.509-3.562c1.425-2.036,1.222-3.155,0.408-5.496
		c-1.628-4.478,0-9.872,0.203-14.553c0.408-5.496,0.611-10.89,0-16.488c-0.611-6.106-1.832-12.01-1.425-18.218
		c0.407-5.598,0.712-10.687,1.017-16.182c0.51-9.979,0.51-20.054,0.206-30.027v2.341c0,0-0.814-12.722,4.478-15.775
		c8.142-4.479,18.014-3.766,26.869-4.173c11.5-0.509,23.103,0.611,34.604,0.611c6.718,0,13.333-0.102,19.846-1.628
		c4.58-1.019,9.16-1.425,13.841-1.222c5.7,0.407,11.195,1.832,16.793,2.341c5.597,0.509,11.093,0.203,16.691-0.102
		c12.112-0.814,24.324-0.509,36.435,0l18.931,0.814c2.952,0.102,6.311,0.814,9.16,0.102l5.394-1.833
		c3.971-1.12,6.718-0.102,10.586,0.814l14.249,3.359c1.628-0.407,3.154-0.509,4.375,0.712c2.646,2.442,0.102,5.496,2.036,8.244
		c2.342,3.256,4.479,5.394,4.987,9.567c0.509,4.478,0.713,9.363-0.712,13.739c-1.018,2.952-2.342,6.106-1.12,9.261
		c0.713,1.934,2.036,3.766,2.545,5.802c1.018,4.375,1.018,8.752,0.712,13.23c-0.204,5.089-0.509,10.28-1.119,15.266
		c-0.408,3.257-1.73,6.412-1.833,9.567c-0.102,2.646,0.712,4.886,1.221,7.43c1.73,8.346-5.597,13.638-6.921,21.271
		c-0.711,4.173,3.971,2.34,6.108,4.783c1.323,1.628,0.611,4.274,0.508,6.004c-0.508,4.479,0.814,8.855,0.611,13.333
		c-0.204,5.598-1.934,10.177-0.611,15.776c0.713,3.154,1.324,6.309,0.611,9.464c-0.712,3.154-4.376,11.094,0.509,12.519
		c0.204,0,0.407,0.202,0.407,0.509c0,1.425-0.203,2.443-0.812,3.765c-2.138,4.885,1.221,3.868,1.831,7.022
		c0.61,2.952-1.119,3.971-1.629,6.719c-0.713,4.375,1.629,7.735,1.425,12.01c-0.102,3.969-2.34,6.206-1.627,9.873
		c0.202,0,0.508,0.202,0.508,0.508c0.406,1.934,0.61,4.173-0.102,6.106c-1.017,2.748-2.138,3.562,1.019,5.191
		C243.353,232.608,243.353,233.319,242.844,233.625L242.844,233.625L242.844,233.625z M189.616,98.569
		c-1.934-11.908-3.052-24.324-7.022-35.722c-1.729-4.784-2.544-9.974-8.142-10.89c-7.328-1.221-4.886,4.886-3.867,10.686
		c1.425,8.957,2.036,18.117,4.375,26.971c1.629,6.106,4.581,13.333-3.562,8.65c-13.638-8.244-18.319-26.258-23.814-39.692
		c-2.443-6.106-9.566-20.661-14.452-24.324c-2.342-1.729-13.842-4.275-16.081-2.748c-4.784,3.256,9.974,26.156,12.011,30.227
		c4.477,9.16,9.26,18.217,15.062,26.461c4.173,5.801,10.687,11.196,1.425,14.655c-9.566,3.664-14.249-1.73-20.762-6.717
		c-5.19-3.867-11.806-4.478-18.32-5.19c-17.913-2.138-34.909-0.102-49.26,11.806c-6.92,5.8-11.297,13.74-14.961,21.882
		c-1.018,2.035-6.92,20.048-6.106,20.152c-3.664-0.612-1.425-9.16-6.106-4.175c-4.173,4.377,1.222,16.997,3.053,21.372
		c4.172,9.771,8.549,19.339,11.805,29.516c3.258,10.178,3.969,9.974,13.333,10.788c11.908,1.12,23.612-2.546,35.316-3.971
		c0,0-20.762-12.923,20.254,1.223c9.161,3.154,18.828,2.34,28.396,2.646c6.819-1.629,7.023-13.333,10.584-18.828
		c1.324-2.036,7.939-12.417,9.975-13.231c2.952-1.119,7.125,1.934,10.075,2.342c17.099,2.646,22.391-11.399,19.643-25.14
		c-2.34-12.008-1.017-25.443,0.713-34.704C193.89,109.154,190.226,101.724,189.616,98.569L189.616,98.569L189.616,98.569z
		 M113.183,244.718c-1.832-1.729-4.58-2.138-6.412-3.969c-1.018-1.121-1.323-2.138-1.12-3.358c0,0-0.102,0-0.102-0.102
		c-1.323-2.444,1.729-4.479,3.867-3.665c1.119,0.509,2.748,1.221,2.952,2.546c0.102,1.729-1.018,2.95-1.323,4.477
		c1.221,0.713,2.442,2.444,3.053,3.257C114.506,244.616,113.691,245.228,113.183,244.718L113.183,244.718L113.183,244.718z"/>
</g>
</svg>
