<svg xmlns="http://www.w3.org/2000/svg" width="24" height="24" viewBox="0 0 24 24"><path d="M12.247 20.271c-.16-.036-.314-.087-.47-.133l-.117-.034a20.097 20.097 0 0 1-.454-.148l-.061-.022a23.596 23.596 0 0 1-.4-.148c-.038-.015-.075-.028-.112-.044a13.537 13.537 0 0 1-.432-.179l-.085-.039a17.433 17.433 0 0 1-.364-.168c-.035-.018-.069-.033-.105-.05-.095-.046-.188-.098-.282-.145-.063-.033-.125-.064-.188-.098-.113-.063-.225-.125-.337-.189-.038-.021-.076-.04-.115-.063a12.264 12.264 0 0 1-.439-.269c-.04-.025-.079-.053-.119-.078a14.132 14.132 0 0 1-.313-.208c-.033-.022-.066-.048-.1-.07-.099-.071-.198-.141-.294-.213-.045-.033-.087-.066-.131-.1-.089-.069-.179-.138-.266-.208l-.12-.097a18.229 18.229 0 0 1-.333-.28c-.01-.01-.024-.019-.035-.029a13.193 13.193 0 0 1-.699-.658l-.098-.099a13.497 13.497 0 0 1-.308-.326l-.016-.017c-.106-.115-.209-.235-.313-.355l-.081-.096a14.453 14.453 0 0 1-.225-.279 4.098 4.098 0 0 1-.083-.102c-.088-.116-.175-.229-.259-.346-2.341-3.193-3.182-7.598-1.31-11.216L1.524 5.869C-.6 8.923-.336 12.898 1.287 16.144c.039.078.078.155.12.232.025.048.048.098.075.146.015.029.032.057.047.084.028.053.057.102.084.151.05.089.102.177.154.266l.089.145c.059.096.119.188.179.281.026.039.051.081.077.118.085.126.172.252.26.377l.008.01.043.06a11.307 11.307 0 0 0 .327.429c.071.091.145.18.219.27l.085.1a12.555 12.555 0 0 0 .312.356l.011.014a9.604 9.604 0 0 0 .41.428c.081.082.165.163.248.242.036.033.068.065.102.098.113.105.225.208.339.311l.006.004.06.05c.101.088.205.175.309.262l.128.102c.085.069.171.137.257.202l.137.104c.095.069.191.141.29.207l.104.075.029.02c.091.063.187.124.281.186.04.025.079.055.121.081.146.091.292.182.439.27l.122.068c.109.063.219.125.33.186l.181.094c.079.04.157.083.236.123a.846.846 0 0 0 .054.025l.097.047c.124.059.249.118.375.174l.079.035c.144.063.288.124.435.182.035.016.071.028.106.042a15.684 15.684 0 0 0 .922.32l.111.033c.157.047.313.103.474.133 10.279 1.875 13.266-6.177 13.266-6.177-2.508 3.268-6.959 4.129-11.177 3.17l-.001-.009zm-3.704-8.332c.231.331.486.724.791.989.11.12.227.24.346.357.029.031.061.06.091.09.115.112.231.221.352.327l.015.013.003.004c.133.116.272.229.413.339.03.024.061.051.094.074a9.114 9.114 0 0 0 .444.324c.064.044.131.086.195.13l.094.062c.104.067.211.133.319.195.015.01.03.017.044.025.093.054.188.106.282.158.033.019.068.035.101.052l.197.102c.01.005.021.011.03.014.135.068.271.132.411.191.03.014.06.024.09.038.112.048.224.094.337.137l.144.054a10.29 10.29 0 0 0 .45.151c.149.047.294.105.449.132C22.168 17.211 24 11.101 24 11.101c-1.651 2.38-4.85 3.515-8.263 2.628-.151-.04-.301-.083-.45-.13l-.135-.044a11.6 11.6 0 0 1-.314-.107c-.048-.02-.095-.036-.143-.055-.113-.044-.227-.09-.337-.136l-.092-.039c-.14-.061-.278-.125-.414-.191-.071-.034-.14-.071-.208-.106-.04-.02-.08-.039-.119-.062a10.633 10.633 0 0 1-.262-.147l-.063-.035a12.84 12.84 0 0 1-.318-.194c-.033-.02-.063-.042-.097-.063a24.373 24.373 0 0 1-.205-.137 12.369 12.369 0 0 1-.428-.313l-.098-.076c-1.493-1.18-2.677-2.792-3.242-4.619-.59-1.895-.462-4.023.56-5.75l-1.255 1.77c-1.537 2.212-1.454 5.172-.255 7.512.201.393.428.772.68 1.135l.001-.003zm8.366-2.735c.065.025.131.046.198.068l.087.027c.094.029.186.064.283.081 4.381.847 5.57-2.248 5.886-2.704-1.042 1.499-2.791 1.859-4.937 1.338a5.604 5.604 0 0 1-.521-.162 6.323 6.323 0 0 1-1.699-.915C14.285 5.48 13.092 2.7 14.346.436l-.679.934c-.907 1.332-.995 2.989-.366 4.461.662 1.563 2.021 2.79 3.605 3.372l.003.001z"/></svg>