<svg xmlns="http://www.w3.org/2000/svg" width="250" height="250" viewBox="0 0 250 250"><path fill="#cdcdcd" d="M0 0h250v250H0z"/><path d="M229.539 190.375c-1.83-11.406-9.268-20.983-31.298-29.919-7.651-3.517-16.184-6.036-18.726-11.834-.903-3.375-1.022-5.276-.452-7.32 1.64-6.63 9.554-8.697 15.827-6.796 4.04 1.354 7.866 4.468 10.171 9.435 10.789-6.987 10.766-6.939 18.299-11.74-2.757-4.277-4.23-6.25-6.036-8.08-6.487-7.248-15.328-10.979-29.468-10.694-2.447.309-4.919.642-7.367.951-7.058 1.782-13.783 5.49-17.728 10.456-11.835 13.427-8.46 36.93 5.94 46.602 14.188 10.646 35.028 13.07 37.69 23.027 2.591 12.191-8.959 16.136-20.438 14.733-8.46-1.758-13.165-6.06-18.251-13.878-9.363 5.418-9.363 5.418-18.987 10.955 2.281 4.991 4.682 7.248 8.508 11.573 18.108 18.37 63.427 17.467 71.554-10.337.334-.95 2.521-7.319.762-17.134zM135.908 114.9h-23.384c0 20.199-.095 40.257-.095 60.456 0 12.856.666 24.644-1.426 28.256-3.422 7.105-12.286 6.227-16.326 4.848-4.111-2.02-6.203-4.896-8.626-8.959-.666-1.165-1.165-2.067-1.331-2.139-6.345 3.873-12.667 7.771-19.012 11.645 3.161 6.487 7.818 12.119 13.783 15.779 8.912 5.347 20.889 6.986 33.413 4.111 8.151-2.377 15.186-7.296 18.869-14.781 5.323-9.814 4.183-21.697 4.136-34.839.117-21.435-.001-42.87-.001-64.377z"/></svg>