<?xml version="1.0" encoding="utf-8"?>
<!-- Generator: Adobe Illustrator 16.0.0, SVG Export Plug-In . SVG Version: 6.00 Build 0)  -->
<!DOCTYPE svg PUBLIC "-//W3C//DTD SVG 1.1//EN" "http://www.w3.org/Graphics/SVG/1.1/DTD/svg11.dtd">
<svg version="1.1" id="Layer_1" xmlns="http://www.w3.org/2000/svg" xmlns:xlink="http://www.w3.org/1999/xlink" x="0px" y="0px"
	 width="250px" height="250px" viewBox="0 0 250 250" enable-background="new 0 0 250 250" xml:space="preserve">
<rect fill="#cdcdcd" width="250" height="250"/>
<path fill="#000000" d="M229.539,190.375c-1.83-11.406-9.268-20.983-31.298-29.919c-7.651-3.517-16.184-6.036-18.726-11.834
	c-0.903-3.375-1.022-5.276-0.452-7.32c1.64-6.63,9.554-8.697,15.827-6.796c4.04,1.354,7.866,4.468,10.171,9.435
	c10.789-6.987,10.766-6.939,18.299-11.74c-2.757-4.277-4.23-6.25-6.036-8.08c-6.487-7.248-15.328-10.979-29.468-10.694
	c-2.447,0.309-4.919,0.642-7.367,0.951c-7.058,1.782-13.783,5.49-17.728,10.456c-11.835,13.427-8.46,36.93,5.94,46.602
	c14.188,10.646,35.028,13.07,37.69,23.027c2.591,12.191-8.959,16.136-20.438,14.733c-8.46-1.758-13.165-6.06-18.251-13.878
	c-9.363,5.418-9.363,5.418-18.987,10.955c2.281,4.991,4.682,7.248,8.508,11.573c18.108,18.37,63.427,17.467,71.554-10.337
	C229.111,206.559,231.298,200.19,229.539,190.375z M135.908,114.9h-23.384c0,20.199-0.095,40.257-0.095,60.456
	c0,12.856,0.666,24.644-1.426,28.256c-3.422,7.105-12.286,6.227-16.326,4.848c-4.111-2.02-6.203-4.896-8.626-8.959
	c-0.666-1.165-1.165-2.067-1.331-2.139c-6.345,3.873-12.667,7.771-19.012,11.645c3.161,6.487,7.818,12.119,13.783,15.779
	c8.912,5.347,20.889,6.986,33.413,4.111c8.151-2.377,15.186-7.296,18.869-14.781c5.323-9.814,4.183-21.697,4.136-34.839
	C136.026,157.842,135.908,136.407,135.908,114.9z"/>
</svg>
