<svg xmlns="http://www.w3.org/2000/svg" width="24" height="24" viewBox="0 0 24 24"><path d="M0 2.229c1.3-.237 3.102-.414 5.547-.414 2.661 0 4.61.561 5.878 1.625 1.179.973 1.947 2.538 1.947 4.396 0 1.89-.588 3.454-1.713 4.519-1.446 1.444-3.72 2.123-6.284 2.123-.68 0-1.304-.028-1.776-.117v7.5H0V2.229zM3.599 11.5c.445.118 1.034.146 1.776.146 2.715 0 4.364-1.326 4.364-3.659 0-2.214-1.531-3.397-4.042-3.397-1.002 0-1.712.09-2.099.178V11.5zm10.57.176c0-2.541 2.096-4.52 5.434-4.52 1.595 0 2.979.416 3.805.857l-.708 2.57c-.619-.355-1.771-.827-3.042-.827-1.296 0-2.003.62-2.003 1.505 0 .917.678 1.358 2.508 2.008 2.598.943 3.805 2.274 3.837 4.397 0 2.6-2.036 4.519-5.847 4.519-1.739 0-3.307-.443-4.366-1.034l.71-2.627c.82.501 2.391 1.032 3.685 1.032 1.596 0 2.305-.648 2.305-1.593 0-.976-.591-1.477-2.358-2.097-2.812-.973-3.988-2.51-3.96-4.19z"/></svg>