<?xml version="1.0" encoding="utf-8"?>
<!-- Generator: Adobe Illustrator 16.0.0, SVG Export Plug-In . SVG Version: 6.00 Build 0)  -->
<!DOCTYPE svg PUBLIC "-//W3C//DTD SVG 1.1//EN" "http://www.w3.org/Graphics/SVG/1.1/DTD/svg11.dtd">
<svg version="1.1" id="Layer_1" xmlns="http://www.w3.org/2000/svg" xmlns:xlink="http://www.w3.org/1999/xlink" x="0px" y="0px"
	 width="24px" height="24px" viewBox="0 0 24 24" enable-background="new 0 0 24 24" xml:space="preserve">
<path d="M0,2.229c1.3-0.237,3.102-0.414,5.547-0.414c2.661,0,4.61,0.561,5.878,1.625c1.179,0.973,1.947,2.538,1.947,4.396
	c0,1.89-0.588,3.454-1.713,4.519c-1.446,1.444-3.72,2.123-6.284,2.123c-0.68,0-1.304-0.028-1.776-0.117v7.5H0V2.229z M3.599,11.5
	c0.445,0.118,1.034,0.146,1.776,0.146c2.715,0,4.364-1.326,4.364-3.659c0-2.214-1.531-3.397-4.042-3.397
	c-1.002,0-1.712,0.09-2.099,0.178V11.5z M14.169,11.676c0-2.541,2.096-4.52,5.434-4.52c1.595,0,2.979,0.416,3.805,0.857L22.7,10.583
	c-0.619-0.355-1.771-0.827-3.042-0.827c-1.296,0-2.003,0.62-2.003,1.505c0,0.917,0.678,1.358,2.508,2.008
	c2.598,0.943,3.805,2.274,3.837,4.397c0,2.6-2.036,4.519-5.847,4.519c-1.739,0-3.307-0.443-4.366-1.034l0.71-2.627
	c0.82,0.501,2.391,1.032,3.685,1.032c1.596,0,2.305-0.648,2.305-1.593c0-0.976-0.591-1.477-2.358-2.097
	C15.317,14.893,14.141,13.356,14.169,11.676z"/>
</svg>
