<svg xmlns="http://www.w3.org/2000/svg" width="24" height="24" viewBox="0 0 24 24"><path d="M23.964 15.733c-.083-.697-.442-1.238-.983-1.662-.628-.491-1.362-.693-2.146-.725a4.816 4.816 0 0 0-1.864.288c-.172.062-.34.136-.513.205-.023-.042-.048-.082-.067-.124-.178-.362-.392-.708-.438-1.124-.034-.296-.076-.591-.006-.883.068-.281.157-.557.239-.835.044-.143.014-.223-.122-.287a.556.556 0 0 0-.151-.049 2.327 2.327 0 0 0-.989.073c-.115.034-.199.098-.225.225-.014.073-.044.143-.064.215-.084.299-.144.604-.28.888a28.169 28.169 0 0 1-1.282 2.319c-.141-.294-.29-.558-.336-.868-.051-.352-.092-.701-.005-1.049.065-.259.149-.514.228-.77.038-.122.021-.185-.09-.25a.509.509 0 0 0-.181-.07 2.22 2.22 0 0 0-1.024.084c-.104.034-.158.101-.191.208-.093.316-.172.64-.303.94a327.53 327.53 0 0 1-1.623 3.637c-.114.252-.247.497-.376.742-.032.063-.079.117-.119.176-.033-.039-.046-.065-.046-.091.001-.155-.017-.316.013-.466.089-.454.193-.907.302-1.358.09-.372.194-.74.295-1.111.033-.124.034-.239-.056-.344a.512.512 0 0 0-.646-.078c-.02.014-.044.024-.081.046l.016-.132c.039-.283.047-.565-.03-.844-.098-.348-.344-.547-.705-.537a1.54 1.54 0 0 0-.5.095c-.654.257-1.157.71-1.584 1.257a.537.537 0 0 1-.148.126c-.553.307-1.109.61-1.663.914l-.618.338c-.165-.158-.316-.322-.487-.461-.521-.426-1.053-.84-1.577-1.262-.466-.372-.917-.761-1.263-1.255-.257-.367-.422-.769-.438-1.224-.02-.579.145-1.107.438-1.6.378-.63.891-1.135 1.457-1.593a13.625 13.625 0 0 1 1.914-1.269c.938-.525 1.904-.99 2.937-1.297 1.061-.314 2.136-.494 3.246-.369.437.049.859.149 1.249.362.298.164.541.377.655.711.111.329.108.662.031.995-.158.676-.528 1.234-.994 1.732-.764.817-1.696 1.373-2.746 1.74a7.509 7.509 0 0 1-1.868.398 3.505 3.505 0 0 1-1.527-.184 1.988 1.988 0 0 1-.842-.572c-.042-.048-.094-.1-.17-.055-.075.045-.089.117-.062.189.041.121.08.244.146.351.163.269.402.464.666.632.505.321 1.07.429 1.656.454.89.038 1.758-.094 2.612-.333 1.222-.341 2.283-.942 3.135-1.891.709-.79 1.215-1.682 1.323-2.759.054-.526-.003-1.041-.249-1.52-.268-.52-.691-.878-1.198-1.143-.738-.387-1.535-.54-2.358-.584h-.824a9.848 9.848 0 0 0-2.898.599c-.708.258-1.404.548-2.079.885-1.469.735-2.839 1.614-3.963 2.831C.964 7.967.489 8.632.217 9.421c-.079.231-.129.476-.186.715-.004.02.019.039-.031.058v.337c.05.086.054.172.076.259.146.561.442 1.043.812 1.482.525.626 1.161 1.13 1.821 1.604.572.411 1.151.813 1.726 1.221.099.069.19.151.297.236-.092.05-.169.094-.249.135-.758.384-1.485.814-2.157 1.336-.405.315-.797.649-1.073 1.085-.445.702-.603 1.451-.271 2.25.098.234.245.436.454.584a.645.645 0 0 0 .222.115c.201.048.408.079.613.117h.58a3.61 3.61 0 0 0 1.753-.641c.824-.57 1.379-1.334 1.619-2.314a4.077 4.077 0 0 0-.023-2.134c-.019-.066-.043-.13-.068-.193s-.054-.125-.088-.206l1.315-.756.02.016c-.024.079-.05.156-.071.236-.156.571-.26 1.152-.223 1.744.04.631.216 1.222.585 1.75.299.426 1.012.442 1.329.014a3.13 3.13 0 0 0 .304-.48c.215-.443.414-.894.617-1.342a.812.812 0 0 0 .036-.082c-.014.211-.032.398-.039.585-.013.29.004.58.104.856.084.237.229.414.502.444.185.022.333-.063.469-.171.214-.169.388-.376.516-.613.363-.668.737-1.331 1.066-2.017.356-.74.668-1.502.999-2.255.02-.042.035-.083.056-.134.078.308.133.608.233.894.116.331.262.654.418.968.075.149.066.245-.037.369-.432.52-.854 1.047-1.279 1.574a3.576 3.576 0 0 0-.267.361.69.69 0 0 0-.092.261.333.333 0 0 0 .266.377c.167.036.347.05.518.037a3.027 3.027 0 0 0 1.606-.604c.616-.457.814-1.079.665-1.817-.04-.201-.112-.396-.182-.588-.031-.087-.033-.149.024-.229.492-.704.913-1.451 1.305-2.213.016-.03.031-.06.058-.093.127.661.318 1.296.66 1.874-.175.168-.348.321-.504.489-.344.37-.643.771-.798 1.262-.067.211-.119.426-.089.652.046.351.333.578.678.499.737-.171 1.374-.518 1.839-1.134.313-.414.342-.876.21-1.36-.035-.131-.078-.262-.124-.413.182-.057.359-.124.543-.166.952-.217 1.895-.179 2.812.165.536.2.97.537 1.226 1.066.313.647.141 1.26-.47 1.668-.057.039-.121.069-.169.116a.165.165 0 0 0-.038.128c.003.024.066.053.102.053.2-.002.363-.107.519-.215.392-.271.648-.634.71-1.112.001-.014-.019-.027.031-.041v-.318c-.05-.013-.028-.026-.03-.04l-.009.001zM5.326 17.026c-.063.853-.45 1.545-1.082 2.104-.355.315-.763.54-1.238.618-.172.028-.349.035-.516-.037-.237-.102-.292-.313-.296-.538-.008-.358.118-.683.291-.992.225-.402.554-.708.906-.996.555-.451 1.156-.834 1.773-1.194.01-.006.021-.009.046-.02.096.355.143.701.116 1.055zm4.814-3.708a6.566 6.566 0 0 1-.181.809c-.275.914-.628 1.8-1.011 2.674-.07.162-.172.309-.262.462a.301.301 0 0 1-.055.064c-.11.109-.215.103-.271-.041a3.255 3.255 0 0 1-.14-.519c-.022-.118-.018-.242-.023-.363.007-.859.269-1.641.714-2.369.184-.3.384-.584.688-.775.094-.059.199-.105.306-.136.161-.045.262.031.235.194zm3.284 4.184l1.18-1.378c.048.512-.821 1.533-1.18 1.378zm3.769-.927c-.084.048-.175.083-.26.126-.078.041-.105 0-.106-.067a.41.41 0 0 1 .018-.138 2.946 2.946 0 0 1 .889-1.432c.006-.007.016-.008.031-.016a1.265 1.265 0 0 1-.572 1.527z"/></svg>