<?xml version="1.0" encoding="utf-8"?>
<!-- Generator: Adobe Illustrator 16.0.0, SVG Export Plug-In . SVG Version: 6.00 Build 0)  -->
<!DOCTYPE svg PUBLIC "-//W3C//DTD SVG 1.1//EN" "http://www.w3.org/Graphics/SVG/1.1/DTD/svg11.dtd">
<svg version="1.1" id="Layer_1" xmlns="http://www.w3.org/2000/svg" xmlns:xlink="http://www.w3.org/1999/xlink" x="0px" y="0px"
	 width="24px" height="24px" viewBox="0 0 24 24" enable-background="new 0 0 24 24" xml:space="preserve">
<path d="M23.964,15.733c-0.083-0.697-0.442-1.238-0.983-1.662c-0.628-0.491-1.362-0.693-2.146-0.725
	c-0.638-0.026-1.262,0.068-1.864,0.288c-0.172,0.062-0.34,0.136-0.513,0.205c-0.023-0.042-0.048-0.082-0.067-0.124
	c-0.178-0.362-0.392-0.708-0.438-1.124c-0.034-0.296-0.076-0.591-0.006-0.883c0.068-0.281,0.157-0.557,0.239-0.835
	c0.044-0.143,0.014-0.223-0.122-0.287c-0.048-0.022-0.1-0.042-0.151-0.049c-0.336-0.048-0.665-0.021-0.989,0.073
	c-0.115,0.034-0.199,0.098-0.225,0.225c-0.014,0.073-0.044,0.143-0.064,0.215c-0.084,0.299-0.144,0.604-0.28,0.888
	c-0.344,0.715-0.735,1.402-1.137,2.084c-0.044,0.074-0.089,0.146-0.145,0.235c-0.141-0.294-0.29-0.558-0.336-0.868
	c-0.051-0.352-0.092-0.701-0.005-1.049c0.065-0.259,0.149-0.514,0.228-0.77c0.038-0.122,0.021-0.185-0.09-0.25
	c-0.056-0.032-0.118-0.062-0.181-0.07c-0.349-0.052-0.69-0.024-1.024,0.084c-0.104,0.034-0.158,0.101-0.191,0.208
	c-0.093,0.316-0.172,0.64-0.303,0.94c-0.531,1.216-1.077,2.427-1.623,3.637c-0.114,0.252-0.247,0.497-0.376,0.742
	c-0.032,0.063-0.079,0.117-0.119,0.176c-0.033-0.039-0.046-0.065-0.046-0.091c0.001-0.155-0.017-0.316,0.013-0.466
	c0.089-0.454,0.193-0.907,0.302-1.358c0.09-0.372,0.194-0.74,0.295-1.111c0.033-0.124,0.034-0.239-0.056-0.344
	c-0.149-0.175-0.461-0.212-0.646-0.078c-0.02,0.014-0.044,0.024-0.081,0.046c0.007-0.058,0.011-0.096,0.016-0.132
	c0.039-0.283,0.047-0.565-0.03-0.844c-0.098-0.348-0.344-0.547-0.705-0.537c-0.168,0.006-0.345,0.034-0.5,0.095
	c-0.654,0.257-1.157,0.71-1.584,1.257C7.989,13.524,7.938,13.57,7.883,13.6c-0.553,0.307-1.109,0.61-1.663,0.914
	c-0.208,0.113-0.415,0.228-0.618,0.338c-0.165-0.158-0.316-0.322-0.487-0.461c-0.521-0.426-1.053-0.84-1.577-1.262
	c-0.466-0.372-0.917-0.761-1.263-1.255c-0.257-0.367-0.422-0.769-0.438-1.224c-0.02-0.579,0.145-1.107,0.438-1.6
	c0.378-0.63,0.891-1.135,1.457-1.593C4.33,6.974,4.977,6.563,5.646,6.188C6.584,5.663,7.55,5.198,8.583,4.891
	c1.061-0.314,2.136-0.494,3.246-0.369c0.437,0.049,0.859,0.149,1.249,0.362c0.298,0.164,0.541,0.377,0.655,0.711
	c0.111,0.329,0.108,0.662,0.031,0.995c-0.158,0.676-0.528,1.234-0.994,1.732c-0.764,0.817-1.696,1.373-2.746,1.74
	c-0.605,0.212-1.229,0.345-1.868,0.398c-0.522,0.044-1.033-0.002-1.527-0.184c-0.327-0.12-0.613-0.305-0.842-0.572
	c-0.042-0.048-0.094-0.1-0.17-0.055C5.542,9.694,5.528,9.766,5.555,9.838c0.041,0.121,0.08,0.244,0.146,0.351
	c0.163,0.269,0.402,0.464,0.666,0.632c0.505,0.321,1.07,0.429,1.656,0.454c0.89,0.038,1.758-0.094,2.612-0.333
	c1.222-0.341,2.283-0.942,3.135-1.891c0.709-0.79,1.215-1.682,1.323-2.759c0.054-0.526-0.003-1.041-0.249-1.52
	c-0.268-0.52-0.691-0.878-1.198-1.143c-0.738-0.387-1.535-0.54-2.358-0.584c-0.274,0-0.549,0-0.824,0
	C9.467,3.094,8.503,3.303,7.566,3.644C6.858,3.902,6.162,4.192,5.487,4.529C4.018,5.264,2.648,6.143,1.524,7.36
	C0.964,7.967,0.489,8.632,0.217,9.421c-0.079,0.231-0.129,0.476-0.186,0.715C0.027,10.156,0.05,10.175,0,10.194
	c0,0.113,0,0.224,0,0.337c0.05,0.086,0.054,0.172,0.076,0.259c0.146,0.561,0.442,1.043,0.812,1.482
	c0.525,0.626,1.161,1.13,1.821,1.604c0.572,0.411,1.151,0.813,1.726,1.221c0.099,0.069,0.19,0.151,0.297,0.236
	c-0.092,0.05-0.169,0.094-0.249,0.135c-0.758,0.384-1.485,0.814-2.157,1.336c-0.405,0.315-0.797,0.649-1.073,1.085
	c-0.445,0.702-0.603,1.451-0.271,2.25c0.098,0.234,0.245,0.436,0.454,0.584c0.066,0.048,0.143,0.097,0.222,0.115
	c0.201,0.048,0.408,0.079,0.613,0.117c0.193,0,0.387,0,0.58,0c0.642-0.058,1.227-0.277,1.753-0.641
	C5.428,19.744,5.983,18.98,6.223,18c0.175-0.712,0.181-1.425-0.023-2.134c-0.019-0.066-0.043-0.13-0.068-0.193
	s-0.054-0.125-0.088-0.206c0.438-0.251,0.877-0.504,1.315-0.756c0.007,0.005,0.013,0.011,0.02,0.016
	c-0.024,0.079-0.05,0.156-0.071,0.236c-0.156,0.571-0.26,1.152-0.223,1.744c0.04,0.631,0.216,1.222,0.585,1.75
	c0.299,0.426,1.012,0.442,1.329,0.014c0.112-0.152,0.222-0.311,0.304-0.48c0.215-0.443,0.414-0.894,0.617-1.342
	c0.01-0.019,0.018-0.037,0.036-0.082c-0.014,0.211-0.032,0.398-0.039,0.585c-0.013,0.29,0.004,0.58,0.104,0.856
	c0.084,0.237,0.229,0.414,0.502,0.444c0.185,0.022,0.333-0.063,0.469-0.171c0.214-0.169,0.388-0.376,0.516-0.613
	c0.363-0.668,0.737-1.331,1.066-2.017c0.356-0.74,0.668-1.502,0.999-2.255c0.02-0.042,0.035-0.083,0.056-0.134
	c0.078,0.308,0.133,0.608,0.233,0.894c0.116,0.331,0.262,0.654,0.418,0.968c0.075,0.149,0.066,0.245-0.037,0.369
	c-0.432,0.52-0.854,1.047-1.279,1.574c-0.095,0.117-0.188,0.234-0.267,0.361c-0.048,0.077-0.079,0.171-0.092,0.261
	c-0.024,0.172,0.08,0.337,0.266,0.377c0.167,0.036,0.347,0.05,0.518,0.037c0.592-0.043,1.13-0.251,1.606-0.604
	c0.616-0.457,0.814-1.079,0.665-1.817c-0.04-0.201-0.112-0.396-0.182-0.588c-0.031-0.087-0.033-0.149,0.024-0.229
	c0.492-0.704,0.913-1.451,1.305-2.213c0.016-0.03,0.031-0.06,0.058-0.093c0.127,0.661,0.318,1.296,0.66,1.874
	c-0.175,0.168-0.348,0.321-0.504,0.489c-0.344,0.37-0.643,0.771-0.798,1.262c-0.067,0.211-0.119,0.426-0.089,0.652
	c0.046,0.351,0.333,0.578,0.678,0.499c0.737-0.171,1.374-0.518,1.839-1.134c0.313-0.414,0.342-0.876,0.21-1.36
	c-0.035-0.131-0.078-0.262-0.124-0.413c0.182-0.057,0.359-0.124,0.543-0.166c0.952-0.217,1.895-0.179,2.812,0.165
	c0.536,0.2,0.97,0.537,1.226,1.066c0.313,0.647,0.141,1.26-0.47,1.668c-0.057,0.039-0.121,0.069-0.169,0.116
	c-0.028,0.029-0.046,0.088-0.038,0.128c0.003,0.024,0.066,0.053,0.102,0.053c0.2-0.002,0.363-0.107,0.519-0.215
	c0.392-0.271,0.648-0.634,0.71-1.112c0.001-0.014-0.019-0.027,0.031-0.041c0-0.106,0-0.212,0-0.318
	c-0.05-0.013-0.028-0.026-0.03-0.04L23.964,15.733z M5.326,17.026c-0.063,0.853-0.45,1.545-1.082,2.104
	c-0.355,0.315-0.763,0.54-1.238,0.618c-0.172,0.028-0.349,0.035-0.516-0.037c-0.237-0.102-0.292-0.313-0.296-0.538
	c-0.008-0.358,0.118-0.683,0.291-0.992c0.225-0.402,0.554-0.708,0.906-0.996c0.555-0.451,1.156-0.834,1.773-1.194
	c0.01-0.006,0.021-0.009,0.046-0.02C5.306,16.326,5.353,16.672,5.326,17.026L5.326,17.026z M10.14,13.318
	c-0.045,0.272-0.102,0.545-0.181,0.809c-0.275,0.914-0.628,1.8-1.011,2.674c-0.07,0.162-0.172,0.309-0.262,0.462
	c-0.014,0.024-0.034,0.044-0.055,0.064c-0.11,0.109-0.215,0.103-0.271-0.041c-0.064-0.166-0.104-0.343-0.14-0.519
	c-0.022-0.118-0.018-0.242-0.023-0.363c0.007-0.859,0.269-1.641,0.714-2.369c0.184-0.3,0.384-0.584,0.688-0.775
	c0.094-0.059,0.199-0.105,0.306-0.136C10.066,13.079,10.167,13.155,10.14,13.318L10.14,13.318z M13.424,17.502
	c0.393-0.459,0.786-0.918,1.18-1.378C14.652,16.636,13.783,17.657,13.424,17.502z M17.193,16.575
	c-0.084,0.048-0.175,0.083-0.26,0.126c-0.078,0.041-0.105,0-0.106-0.067c-0.002-0.045,0.004-0.093,0.018-0.138
	c0.159-0.563,0.451-1.042,0.889-1.432c0.006-0.007,0.016-0.008,0.031-0.016C17.972,15.629,17.732,16.267,17.193,16.575
	L17.193,16.575z"/>
</svg>
