<svg baseProfile="tiny" xmlns="http://www.w3.org/2000/svg" width="24" height="24" viewBox="0 0 24 24"><path d="M17.772 2.433a.473.473 0 0 0-.359-.167H6.587a.468.468 0 0 0-.358.167l-4.99 5.918a.468.468 0 0 0 .001.604h-.003l10.762 12.779L22.762 8.955l-.001-.001a.468.468 0 0 0 .001-.604l-4.99-5.917zm-.577.77l4.199 4.98h-4.802l-3.666-4.98h4.269zm-1.766 4.981H8.571l3.428-4.657 3.43 4.657zM6.805 3.203h4.269l-3.666 4.98H2.604l4.201-4.98zM2.604 9.122h4.707l3.392 9.616-8.099-9.616zm5.704 0h7.386L12 19.596 8.308 9.122zm4.989 9.616l3.391-9.616h4.708l-8.099 9.616z"/></svg>